# xmcd
# 
# Track frame offsets:
#     150
#     7155
#     14510
#     21400
#     28382
#     35175
#     42110
#     49082
#     56232
#     62942
#     69645
#     76592
#     83330
#     90752
#     97427
#     103752
#     110670
#     117770
#     125232
#     132430
#     139405
#     146145
#     153102
#     160555
#     167847
#     175277
#     181812
#     189230
#     196560
#     203995
#     210682
#     217575
#     225045
#     231677
#     238787
#     246060
#     253450
#     260170
#     267597
#     274880
#     282310
#     289382
#     296805
#     304010
#     311107
#     318522
#     325787
#     332835
#     340155
#     347545
# 
# Disc length: 4733
# 
# Revision: 6
# Processed by: cddbd v1.5.2PL0 Copyright (c) Steve Scherf et al.
# Submitted via: BonkEnc v1.0.6
# 
DISCID=05127b32
DTITLE=Various Artist - BEST BLUE NOTE 100 DISC 2
DYEAR=2005
DGENRE=Jazz
TTITLE0=01.SONG FOR MY FATHER/HORACE SILVER
TTITLE1=02.WHISPER NOT/LEE MORGAN
TTITLE2=03.ROCCUS/LEE MORGAN
TTITLE3=04.SPEAK LOW/SONNY CLARK
TTITLE4=05.MINOR MEETING/SONNY CLARK
TTITLE5=06.JUST BY MYSELF/LEE MORGAN
TTITLE6=07.'S MAKE IT/WALTER DAVIS JR.
TTITLE7=08.EL CUMBANCHERO/SABU
TTITLE8=09.WE SIX/PAUL CHAMBERS
TTITLE9=10.BAGS' GROOVE/MILT JACKSON
TTITLE10=11.FACES AND PLACES/ORNETTE COLEMAN
TTITLE11=12.GONE WITH THE WIND/JUTTA HIPP
TTITLE12=13.LOVER MAN/JIMMY SMITH
TTITLE13=14.SONNYSPHERE/SONNY ROLLINS
TTITLE14=15.LOVER COME BACK TO ME/DONALD BYRD
TTITLE15=16.MEXICO CITY/KENNY BURRELL
TTITLE16=17.THE LADY SINGS THE BLUES/HERBIE NICHOLS
TTITLE17=18.CANTALOUPE ISLAND/HERBIE HANCOCK
TTITLE18=19.THE THIRD/J.R. MONTEROSE
TTITLE19=20.DOUBLE WHAMMY/HANK MOBLEY
TTITLE20=21.FACE TO FACE/"BABY FACF" WILLETTE
TTITLE21=22.THE PREACHER/HORACE SILVER
TTITLE22=23.BLUE BOSSA/JOE HENDERSON
TTITLE23=24.STRAIGHT NO CHASER/THELONIOUS MONK
TTITLE24=25.HAT AND BEARD/ERIO DOLPHY
TTITLE25=26.UNDERCURRENT/KENNY DREW
TTITLE26=27.I'M A FOOL TO WANT YOU/DUKE PEARSON
TTITLE27=28.MIGHTY MOE AND JOE/HANK MOBLEY
TTITLE28=29.CHEESE CAKE/DEXTER GORDON
TTITLE29=30.DIAL S FOR SONNY/SONNY CLARK
TTITLE30=31MINOR'S HOLIDAY/THE JAZZ MESSENGERS
TTITLE31=32.ON GREEN DOLPHIN STREET/THE THREE SOUNDS
TTITLE32=33.THESE ARE SOULFUL DAYS/LEE MORGAN
TTITLE33=34.WORKOUT/HANK MOBLEY
TTITLE34=35.WILLOW WEEP FOR ME/lKE OUEBEC
TTITLE35=36.BLUF PEARL/BUD POWELL
TTITLE36=37.FUNK IN DEEP FREEZE/HANK MOBLEY
TTITLE37=38.MINOR RUN-DOWN/PAUL CHAMBERS
TTITLE38=39.MAMBO INN/GRANT GREEN
TTITLE39=40.ORIENTAL FOLK SONG/WAYNE SHORTER
TTITLE40=41.THAT GOOD OLD FEELING/LOU DONALDSON
TTITLE41=42.'ROUND MIDNIGHT/GRANT GREEN
TTITLE42=43.THE TOKYO BLUES/HORACE SILVER
TTITLE43=44.THE CHASE/FATS NAVARRO
TTITLE44=45.ECAROH/HORACE SILVER
TTITLE45=46.SWEET HONEY BEE/LEE MORGAN
TTITLE46=47.FIT FOR A HANKER/HANK MOBLEY
TTITLE47=48.DESERT MOONLIGHT/LEF MORGAN
TTITLE48=49.I WANT TO HOLD YOUR HAND/GRANT GRFEN
TTITLE49=50.DO IT/JACK WILSON
EXTD=YEAR: 2005
EXTT0=
EXTT1=
EXTT2=
EXTT3=
EXTT4=
EXTT5=
EXTT6=
EXTT7=
EXTT8=
EXTT9=
EXTT10=
EXTT11=
EXTT12=
EXTT13=
EXTT14=
EXTT15=
EXTT16=
EXTT17=
EXTT18=
EXTT19=
EXTT20=
EXTT21=
EXTT22=
EXTT23=
EXTT24=
EXTT25=
EXTT26=
EXTT27=
EXTT28=
EXTT29=
EXTT30=
EXTT31=
EXTT32=
EXTT33=
EXTT34=
EXTT35=
EXTT36=
EXTT37=
EXTT38=
EXTT39=
EXTT40=
EXTT41=
EXTT42=
EXTT43=
EXTT44=
EXTT45=
EXTT46=
EXTT47=
EXTT48=
EXTT49=
PLAYORDER=
